<svg xmlns="http://www.w3.org/2000/svg" width="1280" height="720" viewBox="0 0 1280 720">
  <rect width="1280" height="720" fill="#F1F5F9"/>
  <g opacity="0.5">
    <circle cx="40" cy="90" r="0.8" fill="#E2E8F0"/>
    <circle cx="40" cy="130" r="0.8" fill="#E2E8F0"/>
    <circle cx="40" cy="170" r="0.8" fill="#E2E8F0"/>
    <circle cx="40" cy="210" r="0.8" fill="#E2E8F0"/>
    <circle cx="40" cy="250" r="0.8" fill="#E2E8F0"/>
    <circle cx="40" cy="290" r="0.8" fill="#E2E8F0"/>
    <circle cx="40" cy="330" r="0.8" fill="#E2E8F0"/>
    <circle cx="40" cy="370" r="0.8" fill="#E2E8F0"/>
    <circle cx="40" cy="410" r="0.8" fill="#E2E8F0"/>
    <circle cx="40" cy="450" r="0.8" fill="#E2E8F0"/>
    <circle cx="40" cy="490" r="0.8" fill="#E2E8F0"/>
    <circle cx="40" cy="530" r="0.8" fill="#E2E8F0"/>
    <circle cx="40" cy="570" r="0.8" fill="#E2E8F0"/>
    <circle cx="40" cy="610" r="0.8" fill="#E2E8F0"/>
    <circle cx="40" cy="650" r="0.8" fill="#E2E8F0"/>
    <circle cx="80" cy="90" r="0.8" fill="#E2E8F0"/>
    <circle cx="80" cy="130" r="0.8" fill="#E2E8F0"/>
    <circle cx="80" cy="170" r="0.8" fill="#E2E8F0"/>
    <circle cx="80" cy="210" r="0.8" fill="#E2E8F0"/>
    <circle cx="80" cy="250" r="0.8" fill="#E2E8F0"/>
    <circle cx="80" cy="290" r="0.8" fill="#E2E8F0"/>
    <circle cx="80" cy="330" r="0.8" fill="#E2E8F0"/>
    <circle cx="80" cy="370" r="0.8" fill="#E2E8F0"/>
    <circle cx="80" cy="410" r="0.8" fill="#E2E8F0"/>
    <circle cx="80" cy="450" r="0.8" fill="#E2E8F0"/>
    <circle cx="80" cy="490" r="0.8" fill="#E2E8F0"/>
    <circle cx="80" cy="530" r="0.8" fill="#E2E8F0"/>
    <circle cx="80" cy="570" r="0.8" fill="#E2E8F0"/>
    <circle cx="80" cy="610" r="0.8" fill="#E2E8F0"/>
    <circle cx="80" cy="650" r="0.8" fill="#E2E8F0"/>
    <circle cx="120" cy="90" r="0.8" fill="#E2E8F0"/>
    <circle cx="120" cy="130" r="0.8" fill="#E2E8F0"/>
    <circle cx="120" cy="170" r="0.8" fill="#E2E8F0"/>
    <circle cx="120" cy="210" r="0.8" fill="#E2E8F0"/>
    <circle cx="120" cy="250" r="0.8" fill="#E2E8F0"/>
    <circle cx="120" cy="290" r="0.8" fill="#E2E8F0"/>
    <circle cx="120" cy="330" r="0.8" fill="#E2E8F0"/>
    <circle cx="120" cy="370" r="0.8" fill="#E2E8F0"/>
    <circle cx="120" cy="410" r="0.8" fill="#E2E8F0"/>
    <circle cx="120" cy="450" r="0.8" fill="#E2E8F0"/>
    <circle cx="120" cy="490" r="0.8" fill="#E2E8F0"/>
    <circle cx="120" cy="530" r="0.8" fill="#E2E8F0"/>
    <circle cx="120" cy="570" r="0.8" fill="#E2E8F0"/>
    <circle cx="120" cy="610" r="0.8" fill="#E2E8F0"/>
    <circle cx="120" cy="650" r="0.8" fill="#E2E8F0"/>
    <circle cx="160" cy="90" r="0.8" fill="#E2E8F0"/>
    <circle cx="160" cy="130" r="0.8" fill="#E2E8F0"/>
    <circle cx="160" cy="170" r="0.8" fill="#E2E8F0"/>
    <circle cx="160" cy="210" r="0.8" fill="#E2E8F0"/>
    <circle cx="160" cy="250" r="0.8" fill="#E2E8F0"/>
    <circle cx="160" cy="290" r="0.8" fill="#E2E8F0"/>
    <circle cx="160" cy="330" r="0.8" fill="#E2E8F0"/>
    <circle cx="160" cy="370" r="0.8" fill="#E2E8F0"/>
    <circle cx="160" cy="410" r="0.8" fill="#E2E8F0"/>
    <circle cx="160" cy="450" r="0.8" fill="#E2E8F0"/>
    <circle cx="160" cy="490" r="0.8" fill="#E2E8F0"/>
    <circle cx="160" cy="530" r="0.8" fill="#E2E8F0"/>
    <circle cx="160" cy="570" r="0.8" fill="#E2E8F0"/>
    <circle cx="160" cy="610" r="0.8" fill="#E2E8F0"/>
    <circle cx="160" cy="650" r="0.8" fill="#E2E8F0"/>
    <circle cx="200" cy="90" r="0.8" fill="#E2E8F0"/>
    <circle cx="200" cy="130" r="0.8" fill="#E2E8F0"/>
    <circle cx="200" cy="170" r="0.8" fill="#E2E8F0"/>
    <circle cx="200" cy="210" r="0.8" fill="#E2E8F0"/>
    <circle cx="200" cy="250" r="0.8" fill="#E2E8F0"/>
    <circle cx="200" cy="290" r="0.8" fill="#E2E8F0"/>
    <circle cx="200" cy="330" r="0.8" fill="#E2E8F0"/>
    <circle cx="200" cy="370" r="0.8" fill="#E2E8F0"/>
    <circle cx="200" cy="410" r="0.8" fill="#E2E8F0"/>
    <circle cx="200" cy="450" r="0.8" fill="#E2E8F0"/>
    <circle cx="200" cy="490" r="0.8" fill="#E2E8F0"/>
    <circle cx="200" cy="530" r="0.8" fill="#E2E8F0"/>
    <circle cx="200" cy="570" r="0.8" fill="#E2E8F0"/>
    <circle cx="200" cy="610" r="0.8" fill="#E2E8F0"/>
    <circle cx="200" cy="650" r="0.8" fill="#E2E8F0"/>
    <circle cx="240" cy="90" r="0.8" fill="#E2E8F0"/>
    <circle cx="240" cy="130" r="0.8" fill="#E2E8F0"/>
    <circle cx="240" cy="170" r="0.8" fill="#E2E8F0"/>
    <circle cx="240" cy="210" r="0.8" fill="#E2E8F0"/>
    <circle cx="240" cy="250" r="0.8" fill="#E2E8F0"/>
    <circle cx="240" cy="290" r="0.8" fill="#E2E8F0"/>
    <circle cx="240" cy="330" r="0.8" fill="#E2E8F0"/>
    <circle cx="240" cy="370" r="0.8" fill="#E2E8F0"/>
    <circle cx="240" cy="410" r="0.8" fill="#E2E8F0"/>
    <circle cx="240" cy="450" r="0.8" fill="#E2E8F0"/>
    <circle cx="240" cy="490" r="0.8" fill="#E2E8F0"/>
    <circle cx="240" cy="530" r="0.8" fill="#E2E8F0"/>
    <circle cx="240" cy="570" r="0.8" fill="#E2E8F0"/>
    <circle cx="240" cy="610" r="0.8" fill="#E2E8F0"/>
    <circle cx="240" cy="650" r="0.8" fill="#E2E8F0"/>
    <circle cx="280" cy="90" r="0.8" fill="#E2E8F0"/>
    <circle cx="280" cy="130" r="0.8" fill="#E2E8F0"/>
    <circle cx="280" cy="170" r="0.8" fill="#E2E8F0"/>
    <circle cx="280" cy="210" r="0.8" fill="#E2E8F0"/>
    <circle cx="280" cy="250" r="0.8" fill="#E2E8F0"/>
    <circle cx="280" cy="290" r="0.8" fill="#E2E8F0"/>
    <circle cx="280" cy="330" r="0.8" fill="#E2E8F0"/>
    <circle cx="280" cy="370" r="0.8" fill="#E2E8F0"/>
    <circle cx="280" cy="410" r="0.8" fill="#E2E8F0"/>
    <circle cx="280" cy="450" r="0.8" fill="#E2E8F0"/>
    <circle cx="280" cy="490" r="0.8" fill="#E2E8F0"/>
    <circle cx="280" cy="530" r="0.8" fill="#E2E8F0"/>
    <circle cx="280" cy="570" r="0.8" fill="#E2E8F0"/>
    <circle cx="280" cy="610" r="0.8" fill="#E2E8F0"/>
    <circle cx="280" cy="650" r="0.8" fill="#E2E8F0"/>
    <circle cx="320" cy="90" r="0.8" fill="#E2E8F0"/>
    <circle cx="320" cy="130" r="0.8" fill="#E2E8F0"/>
    <circle cx="320" cy="170" r="0.8" fill="#E2E8F0"/>
    <circle cx="320" cy="210" r="0.8" fill="#E2E8F0"/>
    <circle cx="320" cy="250" r="0.8" fill="#E2E8F0"/>
    <circle cx="320" cy="290" r="0.8" fill="#E2E8F0"/>
    <circle cx="320" cy="330" r="0.8" fill="#E2E8F0"/>
    <circle cx="320" cy="370" r="0.8" fill="#E2E8F0"/>
    <circle cx="320" cy="410" r="0.8" fill="#E2E8F0"/>
    <circle cx="320" cy="450" r="0.8" fill="#E2E8F0"/>
    <circle cx="320" cy="490" r="0.8" fill="#E2E8F0"/>
    <circle cx="320" cy="530" r="0.8" fill="#E2E8F0"/>
    <circle cx="320" cy="570" r="0.8" fill="#E2E8F0"/>
    <circle cx="320" cy="610" r="0.8" fill="#E2E8F0"/>
    <circle cx="320" cy="650" r="0.8" fill="#E2E8F0"/>
    <circle cx="360" cy="90" r="0.8" fill="#E2E8F0"/>
    <circle cx="360" cy="130" r="0.8" fill="#E2E8F0"/>
    <circle cx="360" cy="170" r="0.8" fill="#E2E8F0"/>
    <circle cx="360" cy="210" r="0.8" fill="#E2E8F0"/>
    <circle cx="360" cy="250" r="0.8" fill="#E2E8F0"/>
    <circle cx="360" cy="290" r="0.8" fill="#E2E8F0"/>
    <circle cx="360" cy="330" r="0.8" fill="#E2E8F0"/>
    <circle cx="360" cy="370" r="0.8" fill="#E2E8F0"/>
    <circle cx="360" cy="410" r="0.8" fill="#E2E8F0"/>
    <circle cx="360" cy="450" r="0.8" fill="#E2E8F0"/>
    <circle cx="360" cy="490" r="0.8" fill="#E2E8F0"/>
    <circle cx="360" cy="530" r="0.8" fill="#E2E8F0"/>
    <circle cx="360" cy="570" r="0.8" fill="#E2E8F0"/>
    <circle cx="360" cy="610" r="0.8" fill="#E2E8F0"/>
    <circle cx="360" cy="650" r="0.8" fill="#E2E8F0"/>
    <circle cx="400" cy="90" r="0.8" fill="#E2E8F0"/>
    <circle cx="400" cy="130" r="0.8" fill="#E2E8F0"/>
    <circle cx="400" cy="170" r="0.8" fill="#E2E8F0"/>
    <circle cx="400" cy="210" r="0.8" fill="#E2E8F0"/>
    <circle cx="400" cy="250" r="0.8" fill="#E2E8F0"/>
    <circle cx="400" cy="290" r="0.8" fill="#E2E8F0"/>
    <circle cx="400" cy="330" r="0.8" fill="#E2E8F0"/>
    <circle cx="400" cy="370" r="0.8" fill="#E2E8F0"/>
    <circle cx="400" cy="410" r="0.8" fill="#E2E8F0"/>
    <circle cx="400" cy="450" r="0.8" fill="#E2E8F0"/>
    <circle cx="400" cy="490" r="0.8" fill="#E2E8F0"/>
    <circle cx="400" cy="530" r="0.8" fill="#E2E8F0"/>
    <circle cx="400" cy="570" r="0.8" fill="#E2E8F0"/>
    <circle cx="400" cy="610" r="0.8" fill="#E2E8F0"/>
    <circle cx="400" cy="650" r="0.8" fill="#E2E8F0"/>
    <circle cx="440" cy="90" r="0.8" fill="#E2E8F0"/>
    <circle cx="440" cy="130" r="0.8" fill="#E2E8F0"/>
    <circle cx="440" cy="170" r="0.8" fill="#E2E8F0"/>
    <circle cx="440" cy="210" r="0.8" fill="#E2E8F0"/>
    <circle cx="440" cy="250" r="0.8" fill="#E2E8F0"/>
    <circle cx="440" cy="290" r="0.8" fill="#E2E8F0"/>
    <circle cx="440" cy="330" r="0.8" fill="#E2E8F0"/>
    <circle cx="440" cy="370" r="0.8" fill="#E2E8F0"/>
    <circle cx="440" cy="410" r="0.8" fill="#E2E8F0"/>
    <circle cx="440" cy="450" r="0.8" fill="#E2E8F0"/>
    <circle cx="440" cy="490" r="0.8" fill="#E2E8F0"/>
    <circle cx="440" cy="530" r="0.8" fill="#E2E8F0"/>
    <circle cx="440" cy="570" r="0.8" fill="#E2E8F0"/>
    <circle cx="440" cy="610" r="0.8" fill="#E2E8F0"/>
    <circle cx="440" cy="650" r="0.8" fill="#E2E8F0"/>
    <circle cx="480" cy="90" r="0.8" fill="#E2E8F0"/>
    <circle cx="480" cy="130" r="0.8" fill="#E2E8F0"/>
    <circle cx="480" cy="170" r="0.8" fill="#E2E8F0"/>
    <circle cx="480" cy="210" r="0.8" fill="#E2E8F0"/>
    <circle cx="480" cy="250" r="0.8" fill="#E2E8F0"/>
    <circle cx="480" cy="290" r="0.8" fill="#E2E8F0"/>
    <circle cx="480" cy="330" r="0.8" fill="#E2E8F0"/>
    <circle cx="480" cy="370" r="0.8" fill="#E2E8F0"/>
    <circle cx="480" cy="410" r="0.8" fill="#E2E8F0"/>
    <circle cx="480" cy="450" r="0.8" fill="#E2E8F0"/>
    <circle cx="480" cy="490" r="0.8" fill="#E2E8F0"/>
    <circle cx="480" cy="530" r="0.8" fill="#E2E8F0"/>
    <circle cx="480" cy="570" r="0.8" fill="#E2E8F0"/>
    <circle cx="480" cy="610" r="0.8" fill="#E2E8F0"/>
    <circle cx="480" cy="650" r="0.8" fill="#E2E8F0"/>
    <circle cx="520" cy="90" r="0.8" fill="#E2E8F0"/>
    <circle cx="520" cy="130" r="0.8" fill="#E2E8F0"/>
    <circle cx="520" cy="170" r="0.8" fill="#E2E8F0"/>
    <circle cx="520" cy="210" r="0.8" fill="#E2E8F0"/>
    <circle cx="520" cy="250" r="0.8" fill="#E2E8F0"/>
    <circle cx="520" cy="290" r="0.8" fill="#E2E8F0"/>
    <circle cx="520" cy="330" r="0.8" fill="#E2E8F0"/>
    <circle cx="520" cy="370" r="0.8" fill="#E2E8F0"/>
    <circle cx="520" cy="410" r="0.8" fill="#E2E8F0"/>
    <circle cx="520" cy="450" r="0.8" fill="#E2E8F0"/>
    <circle cx="520" cy="490" r="0.8" fill="#E2E8F0"/>
    <circle cx="520" cy="530" r="0.8" fill="#E2E8F0"/>
    <circle cx="520" cy="570" r="0.8" fill="#E2E8F0"/>
    <circle cx="520" cy="610" r="0.8" fill="#E2E8F0"/>
    <circle cx="520" cy="650" r="0.8" fill="#E2E8F0"/>
    <circle cx="560" cy="90" r="0.8" fill="#E2E8F0"/>
    <circle cx="560" cy="130" r="0.8" fill="#E2E8F0"/>
    <circle cx="560" cy="170" r="0.8" fill="#E2E8F0"/>
    <circle cx="560" cy="210" r="0.8" fill="#E2E8F0"/>
    <circle cx="560" cy="250" r="0.8" fill="#E2E8F0"/>
    <circle cx="560" cy="290" r="0.8" fill="#E2E8F0"/>
    <circle cx="560" cy="330" r="0.8" fill="#E2E8F0"/>
    <circle cx="560" cy="370" r="0.8" fill="#E2E8F0"/>
    <circle cx="560" cy="410" r="0.8" fill="#E2E8F0"/>
    <circle cx="560" cy="450" r="0.8" fill="#E2E8F0"/>
    <circle cx="560" cy="490" r="0.8" fill="#E2E8F0"/>
    <circle cx="560" cy="530" r="0.8" fill="#E2E8F0"/>
    <circle cx="560" cy="570" r="0.8" fill="#E2E8F0"/>
    <circle cx="560" cy="610" r="0.8" fill="#E2E8F0"/>
    <circle cx="560" cy="650" r="0.8" fill="#E2E8F0"/>
    <circle cx="600" cy="90" r="0.8" fill="#E2E8F0"/>
    <circle cx="600" cy="130" r="0.8" fill="#E2E8F0"/>
    <circle cx="600" cy="170" r="0.8" fill="#E2E8F0"/>
    <circle cx="600" cy="210" r="0.8" fill="#E2E8F0"/>
    <circle cx="600" cy="250" r="0.8" fill="#E2E8F0"/>
    <circle cx="600" cy="290" r="0.8" fill="#E2E8F0"/>
    <circle cx="600" cy="330" r="0.8" fill="#E2E8F0"/>
    <circle cx="600" cy="370" r="0.8" fill="#E2E8F0"/>
    <circle cx="600" cy="410" r="0.8" fill="#E2E8F0"/>
    <circle cx="600" cy="450" r="0.8" fill="#E2E8F0"/>
    <circle cx="600" cy="490" r="0.8" fill="#E2E8F0"/>
    <circle cx="600" cy="530" r="0.8" fill="#E2E8F0"/>
    <circle cx="600" cy="570" r="0.8" fill="#E2E8F0"/>
    <circle cx="600" cy="610" r="0.8" fill="#E2E8F0"/>
    <circle cx="600" cy="650" r="0.8" fill="#E2E8F0"/>
    <circle cx="640" cy="90" r="0.8" fill="#E2E8F0"/>
    <circle cx="640" cy="130" r="0.8" fill="#E2E8F0"/>
    <circle cx="640" cy="170" r="0.8" fill="#E2E8F0"/>
    <circle cx="640" cy="210" r="0.8" fill="#E2E8F0"/>
    <circle cx="640" cy="250" r="0.8" fill="#E2E8F0"/>
    <circle cx="640" cy="290" r="0.8" fill="#E2E8F0"/>
    <circle cx="640" cy="330" r="0.8" fill="#E2E8F0"/>
    <circle cx="640" cy="370" r="0.8" fill="#E2E8F0"/>
    <circle cx="640" cy="410" r="0.8" fill="#E2E8F0"/>
    <circle cx="640" cy="450" r="0.8" fill="#E2E8F0"/>
    <circle cx="640" cy="490" r="0.8" fill="#E2E8F0"/>
    <circle cx="640" cy="530" r="0.8" fill="#E2E8F0"/>
    <circle cx="640" cy="570" r="0.8" fill="#E2E8F0"/>
    <circle cx="640" cy="610" r="0.8" fill="#E2E8F0"/>
    <circle cx="640" cy="650" r="0.8" fill="#E2E8F0"/>
    <circle cx="680" cy="90" r="0.8" fill="#E2E8F0"/>
    <circle cx="680" cy="130" r="0.8" fill="#E2E8F0"/>
    <circle cx="680" cy="170" r="0.8" fill="#E2E8F0"/>
    <circle cx="680" cy="210" r="0.8" fill="#E2E8F0"/>
    <circle cx="680" cy="250" r="0.8" fill="#E2E8F0"/>
    <circle cx="680" cy="290" r="0.8" fill="#E2E8F0"/>
    <circle cx="680" cy="330" r="0.8" fill="#E2E8F0"/>
    <circle cx="680" cy="370" r="0.8" fill="#E2E8F0"/>
    <circle cx="680" cy="410" r="0.8" fill="#E2E8F0"/>
    <circle cx="680" cy="450" r="0.8" fill="#E2E8F0"/>
    <circle cx="680" cy="490" r="0.8" fill="#E2E8F0"/>
    <circle cx="680" cy="530" r="0.8" fill="#E2E8F0"/>
    <circle cx="680" cy="570" r="0.8" fill="#E2E8F0"/>
    <circle cx="680" cy="610" r="0.8" fill="#E2E8F0"/>
    <circle cx="680" cy="650" r="0.8" fill="#E2E8F0"/>
    <circle cx="720" cy="90" r="0.8" fill="#E2E8F0"/>
    <circle cx="720" cy="130" r="0.8" fill="#E2E8F0"/>
    <circle cx="720" cy="170" r="0.8" fill="#E2E8F0"/>
    <circle cx="720" cy="210" r="0.8" fill="#E2E8F0"/>
    <circle cx="720" cy="250" r="0.8" fill="#E2E8F0"/>
    <circle cx="720" cy="290" r="0.8" fill="#E2E8F0"/>
    <circle cx="720" cy="330" r="0.8" fill="#E2E8F0"/>
    <circle cx="720" cy="370" r="0.8" fill="#E2E8F0"/>
    <circle cx="720" cy="410" r="0.8" fill="#E2E8F0"/>
    <circle cx="720" cy="450" r="0.8" fill="#E2E8F0"/>
    <circle cx="720" cy="490" r="0.8" fill="#E2E8F0"/>
    <circle cx="720" cy="530" r="0.8" fill="#E2E8F0"/>
    <circle cx="720" cy="570" r="0.8" fill="#E2E8F0"/>
    <circle cx="720" cy="610" r="0.8" fill="#E2E8F0"/>
    <circle cx="720" cy="650" r="0.8" fill="#E2E8F0"/>
    <circle cx="760" cy="90" r="0.8" fill="#E2E8F0"/>
    <circle cx="760" cy="130" r="0.8" fill="#E2E8F0"/>
    <circle cx="760" cy="170" r="0.8" fill="#E2E8F0"/>
    <circle cx="760" cy="210" r="0.8" fill="#E2E8F0"/>
    <circle cx="760" cy="250" r="0.8" fill="#E2E8F0"/>
    <circle cx="760" cy="290" r="0.8" fill="#E2E8F0"/>
    <circle cx="760" cy="330" r="0.8" fill="#E2E8F0"/>
    <circle cx="760" cy="370" r="0.8" fill="#E2E8F0"/>
    <circle cx="760" cy="410" r="0.8" fill="#E2E8F0"/>
    <circle cx="760" cy="450" r="0.8" fill="#E2E8F0"/>
    <circle cx="760" cy="490" r="0.8" fill="#E2E8F0"/>
    <circle cx="760" cy="530" r="0.8" fill="#E2E8F0"/>
    <circle cx="760" cy="570" r="0.8" fill="#E2E8F0"/>
    <circle cx="760" cy="610" r="0.8" fill="#E2E8F0"/>
    <circle cx="760" cy="650" r="0.8" fill="#E2E8F0"/>
    <circle cx="800" cy="90" r="0.8" fill="#E2E8F0"/>
    <circle cx="800" cy="130" r="0.8" fill="#E2E8F0"/>
    <circle cx="800" cy="170" r="0.8" fill="#E2E8F0"/>
    <circle cx="800" cy="210" r="0.8" fill="#E2E8F0"/>
    <circle cx="800" cy="250" r="0.8" fill="#E2E8F0"/>
    <circle cx="800" cy="290" r="0.8" fill="#E2E8F0"/>
    <circle cx="800" cy="330" r="0.8" fill="#E2E8F0"/>
    <circle cx="800" cy="370" r="0.8" fill="#E2E8F0"/>
    <circle cx="800" cy="410" r="0.8" fill="#E2E8F0"/>
    <circle cx="800" cy="450" r="0.8" fill="#E2E8F0"/>
    <circle cx="800" cy="490" r="0.8" fill="#E2E8F0"/>
    <circle cx="800" cy="530" r="0.8" fill="#E2E8F0"/>
    <circle cx="800" cy="570" r="0.8" fill="#E2E8F0"/>
    <circle cx="800" cy="610" r="0.8" fill="#E2E8F0"/>
    <circle cx="800" cy="650" r="0.8" fill="#E2E8F0"/>
    <circle cx="840" cy="90" r="0.8" fill="#E2E8F0"/>
    <circle cx="840" cy="130" r="0.8" fill="#E2E8F0"/>
    <circle cx="840" cy="170" r="0.8" fill="#E2E8F0"/>
    <circle cx="840" cy="210" r="0.8" fill="#E2E8F0"/>
    <circle cx="840" cy="250" r="0.8" fill="#E2E8F0"/>
    <circle cx="840" cy="290" r="0.8" fill="#E2E8F0"/>
    <circle cx="840" cy="330" r="0.8" fill="#E2E8F0"/>
    <circle cx="840" cy="370" r="0.8" fill="#E2E8F0"/>
    <circle cx="840" cy="410" r="0.8" fill="#E2E8F0"/>
    <circle cx="840" cy="450" r="0.8" fill="#E2E8F0"/>
    <circle cx="840" cy="490" r="0.8" fill="#E2E8F0"/>
    <circle cx="840" cy="530" r="0.8" fill="#E2E8F0"/>
    <circle cx="840" cy="570" r="0.8" fill="#E2E8F0"/>
    <circle cx="840" cy="610" r="0.8" fill="#E2E8F0"/>
    <circle cx="840" cy="650" r="0.8" fill="#E2E8F0"/>
    <circle cx="880" cy="90" r="0.8" fill="#E2E8F0"/>
    <circle cx="880" cy="130" r="0.8" fill="#E2E8F0"/>
    <circle cx="880" cy="170" r="0.8" fill="#E2E8F0"/>
    <circle cx="880" cy="210" r="0.8" fill="#E2E8F0"/>
    <circle cx="880" cy="250" r="0.8" fill="#E2E8F0"/>
    <circle cx="880" cy="290" r="0.8" fill="#E2E8F0"/>
    <circle cx="880" cy="330" r="0.8" fill="#E2E8F0"/>
    <circle cx="880" cy="370" r="0.8" fill="#E2E8F0"/>
    <circle cx="880" cy="410" r="0.8" fill="#E2E8F0"/>
    <circle cx="880" cy="450" r="0.8" fill="#E2E8F0"/>
    <circle cx="880" cy="490" r="0.8" fill="#E2E8F0"/>
    <circle cx="880" cy="530" r="0.8" fill="#E2E8F0"/>
    <circle cx="880" cy="570" r="0.8" fill="#E2E8F0"/>
    <circle cx="880" cy="610" r="0.8" fill="#E2E8F0"/>
    <circle cx="880" cy="650" r="0.8" fill="#E2E8F0"/>
    <circle cx="920" cy="90" r="0.8" fill="#E2E8F0"/>
    <circle cx="920" cy="130" r="0.8" fill="#E2E8F0"/>
    <circle cx="920" cy="170" r="0.8" fill="#E2E8F0"/>
    <circle cx="920" cy="210" r="0.8" fill="#E2E8F0"/>
    <circle cx="920" cy="250" r="0.8" fill="#E2E8F0"/>
    <circle cx="920" cy="290" r="0.8" fill="#E2E8F0"/>
    <circle cx="920" cy="330" r="0.8" fill="#E2E8F0"/>
    <circle cx="920" cy="370" r="0.8" fill="#E2E8F0"/>
    <circle cx="920" cy="410" r="0.8" fill="#E2E8F0"/>
    <circle cx="920" cy="450" r="0.8" fill="#E2E8F0"/>
    <circle cx="920" cy="490" r="0.8" fill="#E2E8F0"/>
    <circle cx="920" cy="530" r="0.8" fill="#E2E8F0"/>
    <circle cx="920" cy="570" r="0.8" fill="#E2E8F0"/>
    <circle cx="920" cy="610" r="0.8" fill="#E2E8F0"/>
    <circle cx="920" cy="650" r="0.8" fill="#E2E8F0"/>
    <circle cx="960" cy="90" r="0.8" fill="#E2E8F0"/>
    <circle cx="960" cy="130" r="0.8" fill="#E2E8F0"/>
    <circle cx="960" cy="170" r="0.8" fill="#E2E8F0"/>
    <circle cx="960" cy="210" r="0.8" fill="#E2E8F0"/>
    <circle cx="960" cy="250" r="0.8" fill="#E2E8F0"/>
    <circle cx="960" cy="290" r="0.8" fill="#E2E8F0"/>
    <circle cx="960" cy="330" r="0.8" fill="#E2E8F0"/>
    <circle cx="960" cy="370" r="0.8" fill="#E2E8F0"/>
    <circle cx="960" cy="410" r="0.8" fill="#E2E8F0"/>
    <circle cx="960" cy="450" r="0.8" fill="#E2E8F0"/>
    <circle cx="960" cy="490" r="0.8" fill="#E2E8F0"/>
    <circle cx="960" cy="530" r="0.8" fill="#E2E8F0"/>
    <circle cx="960" cy="570" r="0.8" fill="#E2E8F0"/>
    <circle cx="960" cy="610" r="0.8" fill="#E2E8F0"/>
    <circle cx="960" cy="650" r="0.8" fill="#E2E8F0"/>
    <circle cx="1000" cy="90" r="0.8" fill="#E2E8F0"/>
    <circle cx="1000" cy="130" r="0.8" fill="#E2E8F0"/>
    <circle cx="1000" cy="170" r="0.8" fill="#E2E8F0"/>
    <circle cx="1000" cy="210" r="0.8" fill="#E2E8F0"/>
    <circle cx="1000" cy="250" r="0.8" fill="#E2E8F0"/>
    <circle cx="1000" cy="290" r="0.8" fill="#E2E8F0"/>
    <circle cx="1000" cy="330" r="0.8" fill="#E2E8F0"/>
    <circle cx="1000" cy="370" r="0.8" fill="#E2E8F0"/>
    <circle cx="1000" cy="410" r="0.8" fill="#E2E8F0"/>
    <circle cx="1000" cy="450" r="0.8" fill="#E2E8F0"/>
    <circle cx="1000" cy="490" r="0.8" fill="#E2E8F0"/>
    <circle cx="1000" cy="530" r="0.8" fill="#E2E8F0"/>
    <circle cx="1000" cy="570" r="0.8" fill="#E2E8F0"/>
    <circle cx="1000" cy="610" r="0.8" fill="#E2E8F0"/>
    <circle cx="1000" cy="650" r="0.8" fill="#E2E8F0"/>
    <circle cx="1040" cy="90" r="0.8" fill="#E2E8F0"/>
    <circle cx="1040" cy="130" r="0.8" fill="#E2E8F0"/>
    <circle cx="1040" cy="170" r="0.8" fill="#E2E8F0"/>
    <circle cx="1040" cy="210" r="0.8" fill="#E2E8F0"/>
    <circle cx="1040" cy="250" r="0.8" fill="#E2E8F0"/>
    <circle cx="1040" cy="290" r="0.8" fill="#E2E8F0"/>
    <circle cx="1040" cy="330" r="0.8" fill="#E2E8F0"/>
    <circle cx="1040" cy="370" r="0.8" fill="#E2E8F0"/>
    <circle cx="1040" cy="410" r="0.8" fill="#E2E8F0"/>
    <circle cx="1040" cy="450" r="0.8" fill="#E2E8F0"/>
    <circle cx="1040" cy="490" r="0.8" fill="#E2E8F0"/>
    <circle cx="1040" cy="530" r="0.8" fill="#E2E8F0"/>
    <circle cx="1040" cy="570" r="0.8" fill="#E2E8F0"/>
    <circle cx="1040" cy="610" r="0.8" fill="#E2E8F0"/>
    <circle cx="1040" cy="650" r="0.8" fill="#E2E8F0"/>
    <circle cx="1080" cy="90" r="0.8" fill="#E2E8F0"/>
    <circle cx="1080" cy="130" r="0.8" fill="#E2E8F0"/>
    <circle cx="1080" cy="170" r="0.8" fill="#E2E8F0"/>
    <circle cx="1080" cy="210" r="0.8" fill="#E2E8F0"/>
    <circle cx="1080" cy="250" r="0.8" fill="#E2E8F0"/>
    <circle cx="1080" cy="290" r="0.8" fill="#E2E8F0"/>
    <circle cx="1080" cy="330" r="0.8" fill="#E2E8F0"/>
    <circle cx="1080" cy="370" r="0.8" fill="#E2E8F0"/>
    <circle cx="1080" cy="410" r="0.8" fill="#E2E8F0"/>
    <circle cx="1080" cy="450" r="0.8" fill="#E2E8F0"/>
    <circle cx="1080" cy="490" r="0.8" fill="#E2E8F0"/>
    <circle cx="1080" cy="530" r="0.8" fill="#E2E8F0"/>
    <circle cx="1080" cy="570" r="0.8" fill="#E2E8F0"/>
    <circle cx="1080" cy="610" r="0.8" fill="#E2E8F0"/>
    <circle cx="1080" cy="650" r="0.8" fill="#E2E8F0"/>
    <circle cx="1120" cy="90" r="0.8" fill="#E2E8F0"/>
    <circle cx="1120" cy="130" r="0.8" fill="#E2E8F0"/>
    <circle cx="1120" cy="170" r="0.8" fill="#E2E8F0"/>
    <circle cx="1120" cy="210" r="0.8" fill="#E2E8F0"/>
    <circle cx="1120" cy="250" r="0.8" fill="#E2E8F0"/>
    <circle cx="1120" cy="290" r="0.8" fill="#E2E8F0"/>
    <circle cx="1120" cy="330" r="0.8" fill="#E2E8F0"/>
    <circle cx="1120" cy="370" r="0.8" fill="#E2E8F0"/>
    <circle cx="1120" cy="410" r="0.8" fill="#E2E8F0"/>
    <circle cx="1120" cy="450" r="0.8" fill="#E2E8F0"/>
    <circle cx="1120" cy="490" r="0.8" fill="#E2E8F0"/>
    <circle cx="1120" cy="530" r="0.8" fill="#E2E8F0"/>
    <circle cx="1120" cy="570" r="0.8" fill="#E2E8F0"/>
    <circle cx="1120" cy="610" r="0.8" fill="#E2E8F0"/>
    <circle cx="1120" cy="650" r="0.8" fill="#E2E8F0"/>
    <circle cx="1160" cy="90" r="0.8" fill="#E2E8F0"/>
    <circle cx="1160" cy="130" r="0.8" fill="#E2E8F0"/>
    <circle cx="1160" cy="170" r="0.8" fill="#E2E8F0"/>
    <circle cx="1160" cy="210" r="0.8" fill="#E2E8F0"/>
    <circle cx="1160" cy="250" r="0.8" fill="#E2E8F0"/>
    <circle cx="1160" cy="290" r="0.8" fill="#E2E8F0"/>
    <circle cx="1160" cy="330" r="0.8" fill="#E2E8F0"/>
    <circle cx="1160" cy="370" r="0.8" fill="#E2E8F0"/>
    <circle cx="1160" cy="410" r="0.8" fill="#E2E8F0"/>
    <circle cx="1160" cy="450" r="0.8" fill="#E2E8F0"/>
    <circle cx="1160" cy="490" r="0.8" fill="#E2E8F0"/>
    <circle cx="1160" cy="530" r="0.8" fill="#E2E8F0"/>
    <circle cx="1160" cy="570" r="0.8" fill="#E2E8F0"/>
    <circle cx="1160" cy="610" r="0.8" fill="#E2E8F0"/>
    <circle cx="1160" cy="650" r="0.8" fill="#E2E8F0"/>
    <circle cx="1200" cy="90" r="0.8" fill="#E2E8F0"/>
    <circle cx="1200" cy="130" r="0.8" fill="#E2E8F0"/>
    <circle cx="1200" cy="170" r="0.8" fill="#E2E8F0"/>
    <circle cx="1200" cy="210" r="0.8" fill="#E2E8F0"/>
    <circle cx="1200" cy="250" r="0.8" fill="#E2E8F0"/>
    <circle cx="1200" cy="290" r="0.8" fill="#E2E8F0"/>
    <circle cx="1200" cy="330" r="0.8" fill="#E2E8F0"/>
    <circle cx="1200" cy="370" r="0.8" fill="#E2E8F0"/>
    <circle cx="1200" cy="410" r="0.8" fill="#E2E8F0"/>
    <circle cx="1200" cy="450" r="0.8" fill="#E2E8F0"/>
    <circle cx="1200" cy="490" r="0.8" fill="#E2E8F0"/>
    <circle cx="1200" cy="530" r="0.8" fill="#E2E8F0"/>
    <circle cx="1200" cy="570" r="0.8" fill="#E2E8F0"/>
    <circle cx="1200" cy="610" r="0.8" fill="#E2E8F0"/>
    <circle cx="1200" cy="650" r="0.8" fill="#E2E8F0"/>
    <circle cx="1240" cy="90" r="0.8" fill="#E2E8F0"/>
    <circle cx="1240" cy="130" r="0.8" fill="#E2E8F0"/>
    <circle cx="1240" cy="170" r="0.8" fill="#E2E8F0"/>
    <circle cx="1240" cy="210" r="0.8" fill="#E2E8F0"/>
    <circle cx="1240" cy="250" r="0.8" fill="#E2E8F0"/>
    <circle cx="1240" cy="290" r="0.8" fill="#E2E8F0"/>
    <circle cx="1240" cy="330" r="0.8" fill="#E2E8F0"/>
    <circle cx="1240" cy="370" r="0.8" fill="#E2E8F0"/>
    <circle cx="1240" cy="410" r="0.8" fill="#E2E8F0"/>
    <circle cx="1240" cy="450" r="0.8" fill="#E2E8F0"/>
    <circle cx="1240" cy="490" r="0.8" fill="#E2E8F0"/>
    <circle cx="1240" cy="530" r="0.8" fill="#E2E8F0"/>
    <circle cx="1240" cy="570" r="0.8" fill="#E2E8F0"/>
    <circle cx="1240" cy="610" r="0.8" fill="#E2E8F0"/>
    <circle cx="1240" cy="650" r="0.8" fill="#E2E8F0"/>
  </g>
  <rect x="0" y="0" width="1280" height="50" fill="#1E293B"/>
  <text x="20" y="33" font-family="Segoe UI Semibold, sans-serif" font-size="16" fill="#FFFFFF">Trends & Patterns</text>
  <rect x="10" y="52" width="1250" height="108" rx="12" ry="12" fill="#FFFFFF" stroke="#E2E8F0" stroke-width="1" opacity="0.6"/>
  <rect x="10" y="74" width="4" height="65" rx="2" ry="2" fill="#2563EB" opacity="0.8"/>
  <rect x="10" y="160" width="1250" height="280" rx="12" ry="12" fill="#FFFFFF" stroke="#E2E8F0" stroke-width="1" opacity="0.6"/>
  <rect x="10" y="216" width="4" height="168" rx="2" ry="2" fill="#2563EB" opacity="0.8"/>
  <rect x="10" y="440" width="1250" height="230" rx="12" ry="12" fill="#FFFFFF" stroke="#E2E8F0" stroke-width="1" opacity="0.6"/>
  <rect x="10" y="486" width="4" height="138" rx="2" ry="2" fill="#2563EB" opacity="0.8"/>
  <rect x="0" y="680" width="1280" height="40" fill="#F8FAFC" opacity="0.5"/>
</svg>